# xmcd
#
# Track frame offsets:
#	150
#	12160
#	25370
#	34453
#	46400
#	58178
#	73380
#	86218
#	99280
#	113733
#	128995
#	142250
#	156815
#
# Disc length: 2357 seconds
#
# Revision: 2
# Processed by: cddbd v1.5.2PL0 Copyright (c) Steve Scherf et al.
# Submitted via: EZCDAudioConverter 6.0.7.1
#
DISCID=bf09330d
DTITLE=Moe Bandy - Live In Branson, MO, USA
DYEAR=1998
DGENRE=Country
TTITLE0=Another Day, Another Dollar
TTITLE1=Someday Soon
TTITLE2=Hey Joe
TTITLE3=It's A Cheating Situation
TTITLE4=Rodeo Romeo
TTITLE5=Many Mansions
TTITLE6=The Horse That You Can't Ride
TTITLE7=Hank Williams, You Wrote My Life
TTITLE8=My Wish For You
TTITLE9=You Haven't Heard The Last Of Me
TTITLE10=Bandy The Rodeo Clown
TTITLE11=Till I'm Too Old To Die Young
TTITLE12=Americana
EXTD=
EXTT0=
EXTT1=
EXTT2=
EXTT3=
EXTT4=
EXTT5=
EXTT6=
EXTT7=
EXTT8=
EXTT9=
EXTT10=
EXTT11=
EXTT12=
PLAYORDER=
